<svg width="12" height="12" viewBox="0 0 12 12" fill="none" xmlns="http://www.w3.org/2000/svg">
<path d="M6.6343 1.83439C6.78433 1.68441 6.98777 1.60016 7.1999 1.60016C7.41203 1.60016 7.61548 1.68441 7.7655 1.83439L11.3655 5.43439C11.5155 5.58441 11.5997 5.78786 11.5997 5.99999C11.5997 6.21212 11.5155 6.41557 11.3655 6.56559L7.7655 10.1656C7.61462 10.3113 7.41254 10.3919 7.20278 10.3901C6.99302 10.3883 6.79237 10.3042 6.64405 10.1558C6.49572 10.0075 6.41159 9.80687 6.40976 9.59711C6.40794 9.38735 6.48858 9.18527 6.6343 9.03439L8.7999 6.79999H1.1999C0.987729 6.79999 0.784246 6.7157 0.634217 6.56567C0.484188 6.41564 0.399902 6.21216 0.399902 5.99999C0.399902 5.78781 0.484188 5.58433 0.634217 5.4343C0.784246 5.28427 0.987729 5.19999 1.1999 5.19999H8.7999L6.6343 2.96559C6.48433 2.81557 6.40007 2.61212 6.40007 2.39999C6.40007 2.18786 6.48433 1.98441 6.6343 1.83439Z" fill="#A65100"/>
</svg>
