<svg width="96" height="96" viewBox="0 0 96 96" fill="none" xmlns="http://www.w3.org/2000/svg">
<rect x="10" y="10" width="76" height="76" rx="38" fill="white"/>
<rect x="10" y="10" width="76" height="76" rx="38" stroke="#F7F3EA" stroke-width="20"/>
<path d="M49.2686 39.6689C49.5687 39.3689 49.9755 39.2004 50.3998 39.2004C50.8241 39.2004 51.231 39.3689 51.531 39.6689L58.731 46.8689C59.031 47.1689 59.1995 47.5758 59.1995 48.0001C59.1995 48.4244 59.031 48.8313 58.731 49.1313L51.531 56.3313C51.2292 56.6228 50.8251 56.784 50.4056 56.7804C49.986 56.7767 49.5847 56.6085 49.2881 56.3118C48.9914 56.0152 48.8232 55.6139 48.8195 55.1943C48.8159 54.7748 48.9772 54.3707 49.2686 54.0689L53.5998 49.6001H38.3998C37.9755 49.6001 37.5685 49.4315 37.2684 49.1315C36.9684 48.8314 36.7998 48.4244 36.7998 48.0001C36.7998 47.5758 36.9684 47.1688 37.2684 46.8687C37.5685 46.5687 37.9755 46.4001 38.3998 46.4001H53.5998L49.2686 41.9313C48.9687 41.6313 48.8001 41.2244 48.8001 40.8001C48.8001 40.3758 48.9687 39.9689 49.2686 39.6689Z" fill="#062753"/>
</svg>
