<svg width="20" height="17" viewBox="0 0 20 17" fill="none" xmlns="http://www.w3.org/2000/svg">
<path d="M19.2136 5.19915L16.0971 6.2271L15.0834 8.9958C14.9355 9.39923 14.606 9.71272 14.1892 9.84637L13.4529 10.0807L11.8635 14.4292C11.6635 14.9803 11.1298 15.3475 10.5314 15.3467H10.4834L9.92872 16.8531H9.28154L8.7369 15.3467H8.68227C8.08636 15.3467 7.54845 14.9779 7.34925 14.4292L5.76745 10.084L5.02445 9.84637C4.60757 9.71272 4.2781 9.39923 4.13017 8.9958L3.12326 6.2271L0 5.19915H5.71618L5.38334 4.29495L4.12681 0.850575L1.52045 0H6.20198C6.80125 0 7.3358 0.36795 7.535 0.9174L9.09663 5.19915L9.15126 5.34022V7.52895H7.46944L9.60345 13.3914L11.7408 7.53308H10.0624V5.34022L10.1103 5.20245L11.6719 0.9207C11.8728 0.3696 12.4056 0.00165 13.0041 0H17.6898L15.0834 0.853876V0.860475L13.8294 4.29908L13.5008 5.20245H19.2136V5.19915Z" fill="#39EAA2"/>
</svg>
