<svg width="137" height="33" viewBox="0 0 137 33" fill="none" xmlns="http://www.w3.org/2000/svg">
<path d="M16.7038 3.00299C16.9467 3.00299 17.193 3.06322 17.4123 3.18697L28.2597 9.30682C28.6942 9.55432 28.9682 10.013 28.9682 10.5055V22.7485C28.9682 23.2435 28.6976 23.6989 28.2597 23.9473L17.4123 30.0671C17.193 30.1909 16.9467 30.2544 16.7038 30.2544C16.4601 30.2544 16.2138 30.1909 15.9978 30.0671L5.15125 23.9473C4.71251 23.6998 4.44188 23.2435 4.44188 22.7485V10.5055C4.44188 10.013 4.71251 9.55432 5.15125 9.30682L15.9978 3.18697C16.2172 3.06322 16.4601 3.00299 16.7038 3.00299ZM16.7038 1.89502C16.255 1.89502 15.8162 2.00887 15.4296 2.22997L4.5856 8.34652C3.7989 8.79202 3.31394 9.6129 3.31226 10.5022V22.7452C3.31226 23.6354 3.80142 24.4629 4.58896 24.9043L15.433 31.0241C16.2222 31.4721 17.1963 31.4704 17.9847 31.0208L28.8279 24.901C29.6163 24.4555 30.1021 23.6288 30.1021 22.7452V10.5055C30.1021 9.62527 29.6163 8.7978 28.8312 8.34982L17.9813 2.22667C17.5922 2.00887 17.1518 1.89502 16.7038 1.89502Z" fill="#39EAA2"/>
<path d="M26.3174 14.9076L23.2008 15.9356L22.1872 18.7043C22.0393 19.1077 21.7098 19.4212 21.2929 19.5549L20.5567 19.7892L18.9673 24.1377C18.7673 24.6888 18.2335 25.056 17.6351 25.0551H17.5872L17.0325 26.5616H16.3853L15.8407 25.0551H15.786C15.1901 25.0551 14.6522 24.6864 14.453 24.1377L12.8712 19.7925L12.1282 19.5549C11.7113 19.4212 11.3819 19.1077 11.2339 18.7043L10.227 15.9356L7.10376 14.9076H12.8199L12.4871 14.0034L11.2306 10.5591L8.62421 9.7085H13.3057C13.905 9.7085 14.4396 10.0764 14.6388 10.6259L16.2004 14.9076L16.255 15.0487V17.2374H14.5732L16.7072 23.0999L18.8446 17.2416H17.1661V15.0487L17.214 14.9109L18.7757 10.6292C18.9765 10.0781 19.5094 9.71015 20.1078 9.7085H24.7936L22.1872 10.5624V10.569L20.9332 14.0076L20.6046 14.9109H26.3174V14.9076Z" fill="#39EAA2"/>
<path d="M45.4908 12.196C44.6898 11.4461 43.5316 11.0716 42.0179 11.0716H37.7776V22.1827H42.0145C43.5282 22.1827 44.6898 21.8114 45.4874 21.0582C46.2892 20.305 46.6893 19.1797 46.6893 17.6765V15.581C46.6927 14.0746 46.2926 12.9493 45.4908 12.196ZM44.7444 17.7367C44.7444 18.6137 44.5217 19.2869 44.0796 19.7522C43.635 20.2208 42.9533 20.4551 42.0313 20.4551H39.7267V12.8024H42.0313C42.9533 12.8024 43.635 13.0301 44.0796 13.4921C44.5217 13.9508 44.7444 14.6331 44.7444 15.5307V17.7367ZM48.5628 11.0716V22.1827H50.5253V11.0716H48.5628ZM61.3626 14.9276V14.8641C61.3626 13.6357 60.9894 12.6613 60.2422 11.932C59.4959 11.2085 58.4301 10.8472 57.0433 10.8472C55.6565 10.8472 54.5504 11.2316 53.7284 11.9956C52.9098 12.762 52.4988 13.8667 52.4988 15.3063V17.9413C52.4988 18.9049 52.6837 19.7151 53.0569 20.3784C53.43 21.0376 53.9335 21.5433 54.5672 21.8881C55.201 22.233 55.9204 22.4038 56.7214 22.4038C57.3072 22.4038 57.7661 22.3336 58.1082 22.1959C58.4511 22.0556 58.7117 21.8848 58.8966 21.6802C59.0815 21.4732 59.2185 21.2752 59.3042 21.0846H59.5782V22.1761H61.366V16.5949H56.5743V18.2119H59.448V18.4033C59.448 19.079 59.2597 19.6351 58.8823 20.0665C58.5024 20.5021 57.8998 20.7199 57.0778 20.7199C56.2558 20.7199 55.6153 20.4683 55.1564 19.9733C54.6941 19.4742 54.4647 18.8084 54.4647 17.971V15.2725C54.4647 14.4227 54.6941 13.7594 55.1564 13.2809C55.6187 12.7991 56.2491 12.5574 57.0467 12.5574C57.588 12.5574 58.0368 12.658 58.3965 12.8527C58.7529 13.0466 59.0193 13.3147 59.1941 13.6522C59.3656 13.9904 59.4513 14.3724 59.4513 14.7973V14.9243H61.3626V14.9276ZM63.5033 11.0716V22.1827H65.4726V11.0716H63.5033ZM66.9964 11.0716V12.8024H70.3903V22.1827H72.3394V12.8024H75.7333V11.0716H66.9964ZM81.8916 11.0716H78.4977L75.3778 22.1827H77.395L78.0732 19.6417H82.3127L82.991 22.1827H85.0081L81.8916 11.0716ZM78.5288 17.8976L80.0526 12.2596H80.3266L81.8571 17.8976H78.5288ZM88.4197 20.4551V11.0716H86.4504V22.1827H93.7425V20.4551H88.4197ZM103.493 14.9276V14.8641C103.493 13.6357 103.12 12.6613 102.374 11.932C101.626 11.2085 100.561 10.8472 99.1746 10.8472C97.787 10.8472 96.6809 11.2316 95.8589 11.9956C95.0402 12.762 94.6292 13.8667 94.6292 15.3063V17.9413C94.6292 18.9049 94.8141 19.7151 95.1873 20.3784C95.5613 21.0376 96.0648 21.5433 96.6977 21.8881C97.3314 22.233 98.0509 22.4038 98.8527 22.4038C99.4377 22.4038 99.8974 22.3336 100.24 22.1959C100.582 22.0556 100.842 21.8848 101.027 21.6802C101.212 21.4732 101.349 21.2752 101.435 21.0846H101.709V22.1761H103.496V16.5949H98.7048V18.2119H101.578V18.4033C101.578 19.079 101.39 19.6351 101.014 20.0665C100.634 20.5021 100.03 20.7199 99.2082 20.7199C98.3862 20.7199 97.7458 20.4683 97.2869 19.9733C96.8246 19.4742 96.5951 18.8084 96.5951 17.971V15.2725C96.5951 14.4227 96.8246 13.7594 97.2869 13.2809C97.7491 12.7991 98.3795 12.5574 99.178 12.5574C99.7192 12.5574 100.167 12.658 100.527 12.8527C100.883 13.0466 101.151 13.3147 101.322 13.6522C101.497 13.9904 101.582 14.3724 101.582 14.7973V14.9243H103.493V14.9276ZM113.371 11.9956C112.535 11.2316 111.412 10.8472 109.991 10.8472C108.583 10.8472 107.459 11.2316 106.621 11.9956C105.778 12.762 105.36 13.8667 105.36 15.3063V17.9413C105.36 19.381 105.778 20.4856 106.621 21.2521C107.459 22.0185 108.58 22.4038 109.991 22.4038C111.412 22.4038 112.535 22.0185 113.371 21.2521C114.203 20.4856 114.621 19.381 114.621 17.9413V15.3063C114.621 13.8667 114.2 12.7653 113.371 11.9956ZM112.672 18.0082C112.672 18.8348 112.436 19.4874 111.967 19.97C111.494 20.4518 110.836 20.6927 109.991 20.6927C109.155 20.6927 108.507 20.4518 108.035 19.97C107.562 19.4915 107.329 18.8348 107.329 18.0082V15.2461C107.329 14.4194 107.562 13.766 108.035 13.2842C108.507 12.8024 109.155 12.5615 109.991 12.5615C110.836 12.5615 111.494 12.8024 111.967 13.2842C112.436 13.7627 112.672 14.4194 112.672 15.2461V18.0082ZM122.187 11.0716H118.793L115.673 22.1827H117.69L118.368 19.6417H122.608L123.287 22.1827H125.304L122.187 11.0716ZM118.827 17.8976L120.351 12.2596H120.625L122.149 17.8976H118.827ZM124.951 11.0716V12.8024H128.345V22.1827H130.294V12.8024H133.688V11.0716H124.951Z" fill="white"/>
</svg>
