<svg width="96" height="12" viewBox="0 0 96 12" fill="none" xmlns="http://www.w3.org/2000/svg">
<path d="M7.71319 1.34888C6.9122 0.59895 5.754 0.2244 4.24028 0.2244H0V11.3355H4.23691C5.75064 11.3355 6.9122 10.9643 7.70982 10.211C8.51165 9.4578 8.91173 8.3325 8.91173 6.82935V4.73385C8.91509 3.2274 8.51501 2.1021 7.71319 1.34888ZM6.96683 6.88958C6.96683 7.76655 6.7441 8.43975 6.302 8.90505C5.85738 9.37365 5.17574 9.60795 4.25373 9.60795H1.9491V1.95525H4.25373C5.17574 1.95525 5.85738 2.18295 6.302 2.64495C6.7441 3.10365 6.96683 3.78593 6.96683 4.68353V6.88958ZM10.7852 0.2244V11.3355H12.7477V0.2244H10.7852ZM23.585 4.08045V4.01693C23.585 2.7885 23.2118 1.81418 22.4646 1.08488C21.7183 0.36135 20.6525 0 19.2657 0C17.8789 0 16.7728 0.38445 15.9508 1.1484C15.1322 1.91483 14.7212 3.0195 14.7212 4.45913V7.09418C14.7212 8.05778 14.9061 8.86793 15.2793 9.53123C15.6525 10.1904 16.1559 10.6961 16.7896 11.041C17.4234 11.3858 18.1428 11.5566 18.9438 11.5566C19.5296 11.5566 19.9886 11.4865 20.3306 11.3487C20.6736 11.2085 20.9341 11.0377 21.119 10.8331C21.3039 10.626 21.4409 10.428 21.5267 10.2374H21.8007V11.3289H23.5884V5.74778H18.7967V7.36478H21.6704V7.55617C21.6704 8.23185 21.4821 8.7879 21.1047 9.21938C20.7248 9.65498 20.1222 9.87278 19.3002 9.87278C18.4782 9.87278 17.8377 9.62115 17.3788 9.12615C16.9166 8.62702 16.6871 7.96125 16.6871 7.12388V4.4253C16.6871 3.57555 16.9166 2.91225 17.3788 2.43375C17.8411 1.95195 18.4715 1.71023 19.2691 1.71023C19.8104 1.71023 20.2592 1.81088 20.6189 2.00558C20.9753 2.19945 21.2417 2.46758 21.4165 2.805C21.588 3.14325 21.6737 3.52523 21.6737 3.9501V4.07715H23.585V4.08045ZM25.7257 0.2244V11.3355H27.695V0.2244H25.7257ZM29.2188 0.2244V1.95525H32.6127V11.3355H34.5618V1.95525H37.9557V0.2244H29.2188ZM44.114 0.2244H40.7201L37.6002 11.3355H39.6174L40.2957 8.7945H44.5351L45.2134 11.3355H47.2305L44.114 0.2244ZM40.7512 7.05045L42.275 1.4124H42.549L44.0795 7.05045H40.7512ZM50.6421 9.60795V0.2244H48.6728V11.3355H55.9649V9.60795H50.6421ZM65.7155 4.08045V4.01693C65.7155 2.7885 65.3423 1.81418 64.5959 1.08488C63.8487 0.36135 62.7838 0 61.397 0C60.0094 0 58.9033 0.38445 58.0813 1.1484C57.2626 1.91483 56.8516 3.0195 56.8516 4.45913V7.09418C56.8516 8.05778 57.0366 8.86793 57.4097 9.53123C57.7837 10.1904 58.2872 10.6961 58.9201 11.041C59.5538 11.3858 60.2733 11.5566 61.0751 11.5566C61.6601 11.5566 62.1198 11.4865 62.4619 11.3487C62.8048 11.2085 63.0646 11.0377 63.2495 10.8331C63.4344 10.626 63.5714 10.428 63.6571 10.2374H63.9311V11.3289H65.7188V5.74778H60.9272V7.36478H63.8008V7.55617C63.8008 8.23185 63.6126 8.7879 63.236 9.21938C62.8561 9.65498 62.2526 9.87278 61.4306 9.87278C60.6086 9.87278 59.9682 9.62115 59.5093 9.12615C59.047 8.62702 58.8176 7.96125 58.8176 7.12388V4.4253C58.8176 3.57555 59.047 2.91225 59.5093 2.43375C59.9715 1.95195 60.6019 1.71023 61.4004 1.71023C61.9417 1.71023 62.3896 1.81088 62.7494 2.00558C63.1057 2.19945 63.373 2.46758 63.5445 2.805C63.7193 3.14325 63.8042 3.52523 63.8042 3.9501V4.07715H65.7155V4.08045ZM75.5937 1.1484C74.7575 0.38445 73.6346 0 72.2133 0C70.8055 0 69.6817 0.38445 68.8429 1.1484C67.9999 1.91483 67.5822 3.0195 67.5822 4.45913V7.09418C67.5822 8.5338 67.9999 9.63848 68.8429 10.4049C69.6817 11.1713 70.8021 11.5566 72.2133 11.5566C73.6346 11.5566 74.7575 11.1713 75.5937 10.4049C76.4258 9.63848 76.8436 8.5338 76.8436 7.09418V4.45913C76.8436 3.0195 76.4225 1.91813 75.5937 1.1484ZM74.8945 7.161C74.8945 7.98765 74.6583 8.64023 74.1893 9.12285C73.7161 9.60465 73.0588 9.84555 72.2133 9.84555C71.377 9.84555 70.7298 9.60465 70.2575 9.12285C69.7843 8.64435 69.5515 7.98765 69.5515 7.161V4.3989C69.5515 3.57225 69.7843 2.91885 70.2575 2.43705C70.7298 1.95525 71.377 1.71435 72.2133 1.71435C73.0588 1.71435 73.7161 1.95525 74.1893 2.43705C74.6583 2.91555 74.8945 3.57225 74.8945 4.3989V7.161ZM84.4097 0.2244H81.0149L77.895 11.3355H79.9122L80.5905 8.7945H84.8307L85.509 11.3355H87.5262L84.4097 0.2244ZM81.0494 7.05045L82.5732 1.4124H82.8472L84.3718 7.05045H81.0494ZM87.1732 0.2244V1.95525H90.5671V11.3355H92.5162V1.95525H95.9101V0.2244H87.1732Z" fill="white"/>
</svg>
