<svg width="27" height="30" viewBox="0 0 27 30" fill="none" xmlns="http://www.w3.org/2000/svg">
<path d="M13.3915 1.10798C13.6344 1.10798 13.8807 1.1682 14.1001 1.29195L24.9474 7.4118C25.382 7.6593 25.656 8.118 25.656 8.61053V20.8535C25.656 21.3485 25.3853 21.8039 24.9474 22.0523L14.1001 28.1721C13.8807 28.2959 13.6344 28.3594 13.3915 28.3594C13.1478 28.3594 12.9015 28.2959 12.6855 28.1721L1.83899 22.0523C1.40026 21.8048 1.12962 21.3485 1.12962 20.8535V8.61053C1.12962 8.118 1.40026 7.6593 1.83899 7.4118L12.6855 1.29195C12.9049 1.1682 13.1478 1.10798 13.3915 1.10798ZM13.3915 0C12.9427 0 12.504 0.11385 12.1174 0.33495L1.27334 6.4515C0.486644 6.897 0.00168098 7.71788 0 8.60723V20.8502C0 21.7404 0.489166 22.5679 1.27671 23.0093L12.1207 29.1291C12.9099 29.5771 13.8841 29.5754 14.6724 29.1258L25.5156 23.006C26.304 22.5605 26.7898 21.7338 26.7898 20.8502V8.61053C26.7898 7.73025 26.304 6.90278 25.519 6.4548L14.6691 0.33165C14.2799 0.11385 13.8395 0 13.3915 0Z" fill="#39EAA2"/>
</svg>
