<svg width="24" height="24" viewBox="0 0 24 24" fill="none" xmlns="http://www.w3.org/2000/svg">
<path opacity="0.2" d="M16.5 12C16.5 12.89 16.2361 13.76 15.7416 14.5001C15.2471 15.2401 14.5443 15.8169 13.7221 16.1575C12.8998 16.4981 11.995 16.5872 11.1221 16.4135C10.2492 16.2399 9.44736 15.8113 8.81802 15.182C8.18869 14.5526 7.7601 13.7508 7.58647 12.8779C7.41283 12.005 7.50195 11.1002 7.84254 10.2779C8.18314 9.45566 8.75991 8.75285 9.49994 8.25839C10.24 7.76392 11.11 7.5 12 7.5C13.1935 7.5 14.3381 7.97411 15.182 8.81802C16.0259 9.66193 16.5 10.8065 16.5 12Z" fill="white"/>
<path d="M13.125 12C13.125 12.2225 13.059 12.44 12.9354 12.625C12.8118 12.81 12.6361 12.9542 12.4305 13.0394C12.225 13.1245 11.9988 13.1468 11.7805 13.1034C11.5623 13.06 11.3618 12.9528 11.2045 12.7955C11.0472 12.6382 10.94 12.4377 10.8966 12.2195C10.8532 12.0012 10.8755 11.775 10.9606 11.5695C11.0458 11.3639 11.19 11.1882 11.375 11.0646C11.56 10.941 11.7775 10.875 12 10.875C12.2984 10.875 12.5845 10.9935 12.7955 11.2045C13.0065 11.4155 13.125 11.7016 13.125 12Z" fill="white"/>
</svg>
