<svg width="24" height="24" viewBox="0 0 24 24" fill="none" xmlns="http://www.w3.org/2000/svg">
<path opacity="0.2" d="M19.5 13.5C19.5 15.4891 18.7098 17.3968 17.3033 18.8033C15.8968 20.2098 13.9891 21 12 21C10.0109 21 8.10322 20.2098 6.6967 18.8033C5.29018 17.3968 4.5 15.4891 4.5 13.5C4.5 6.75 12 1.5 12 1.5C12 1.5 19.5 6.75 19.5 13.5Z" fill="#F7F3EA"/>
<path d="M16.3125 4.47635C15.1545 3.13895 13.8511 1.93465 12.4266 0.885727C12.3005 0.797387 12.1502 0.75 11.9963 0.75C11.8423 0.75 11.692 0.797387 11.5659 0.885727C10.144 1.93509 8.84317 3.13937 7.6875 4.47635C5.11031 7.43604 3.75 10.556 3.75 13.4998C3.75 15.6878 4.61919 17.7862 6.16637 19.3334C7.71354 20.8806 9.81196 21.7498 12 21.7498C14.188 21.7498 16.2865 20.8806 17.8336 19.3334C19.3808 17.7862 20.25 15.6878 20.25 13.4998C20.25 10.556 18.8897 7.43604 16.3125 4.47635ZM12 20.2498C10.2104 20.2478 8.49466 19.536 7.22922 18.2706C5.96378 17.0051 5.25199 15.2894 5.25 13.4998C5.25 8.13448 10.4503 3.65604 12 2.43729C13.5497 3.65604 18.75 8.1326 18.75 13.4998C18.748 15.2894 18.0362 17.0051 16.7708 18.2706C15.5053 19.536 13.7896 20.2478 12 20.2498ZM17.2397 14.3754C17.0452 15.4617 16.5226 16.4623 15.7422 17.2426C14.9618 18.0228 13.961 18.5452 12.8747 18.7395C12.8334 18.7461 12.7918 18.7495 12.75 18.7498C12.5619 18.7497 12.3806 18.679 12.2422 18.5516C12.1038 18.4241 12.0183 18.2494 12.0028 18.0619C11.9872 17.8744 12.0426 17.6879 12.1581 17.5394C12.2736 17.3909 12.4407 17.2912 12.6262 17.2601C14.1797 16.9985 15.4978 15.6804 15.7612 14.1242C15.7946 13.928 15.9045 13.7531 16.0667 13.6379C16.229 13.5228 16.4304 13.4768 16.6266 13.5101C16.8227 13.5434 16.9976 13.6533 17.1128 13.8156C17.228 13.9779 17.2739 14.1792 17.2406 14.3754H17.2397Z" fill="#F7F3EA"/>
</svg>
