<svg width="10" height="6" viewBox="0 0 10 6" fill="none" xmlns="http://www.w3.org/2000/svg">
<path d="M4.74419 3.8625L8.41919 0.187498C8.54419 0.0624982 8.69002 0.00199757 8.85669 0.00599775C9.02335 0.00999793 9.16919 0.0746647 9.29419 0.199998C9.41919 0.324998 9.48169 0.470831 9.48169 0.637498C9.48169 0.804164 9.41919 0.949998 9.29419 1.075L5.45669 4.925C5.35669 5.025 5.24419 5.1 5.11919 5.15C4.99419 5.2 4.86919 5.225 4.74419 5.225C4.61919 5.225 4.49419 5.2 4.36919 5.15C4.24419 5.1 4.13169 5.025 4.03169 4.925L0.181686 1.075C0.0566858 0.949998 -0.00381415 0.801998 0.000185846 0.630998C0.00418584 0.459998 0.0688525 0.312165 0.194186 0.187499C0.319186 0.0624986 0.465019 -1.45084e-06 0.631686 -1.45812e-06C0.798353 -1.46541e-06 0.944186 0.0624985 1.06919 0.187499L4.74419 3.8625Z" fill="#062753"/>
</svg>
