<svg width="48" height="48" viewBox="0 0 48 48" fill="none" xmlns="http://www.w3.org/2000/svg">
<path opacity="0.2" d="M24 9C21.0333 9 18.1332 9.87973 15.6665 11.528C13.1997 13.1762 11.2771 15.5189 10.1418 18.2597C9.0065 21.0006 8.70945 24.0166 9.28823 26.9264C9.86701 29.8361 11.2956 32.5088 13.3934 34.6066C15.4912 36.7044 18.1639 38.133 21.0737 38.7118C23.9834 39.2906 26.9994 38.9935 29.7403 37.8582C32.4811 36.7229 34.8238 34.8003 36.472 32.3336C38.1203 29.8668 39 26.9667 39 24C39 20.0218 37.4197 16.2064 34.6066 13.3934C31.7936 10.5804 27.9783 9 24 9ZM24 30C22.8133 30 21.6533 29.6481 20.6666 28.9888C19.6799 28.3295 18.9109 27.3925 18.4567 26.2961C18.0026 25.1997 17.8838 23.9933 18.1153 22.8295C18.3468 21.6656 18.9183 20.5965 19.7574 19.7574C20.5965 18.9182 21.6656 18.3468 22.8295 18.1153C23.9934 17.8838 25.1998 18.0026 26.2961 18.4567C27.3925 18.9108 28.3295 19.6799 28.9888 20.6666C29.6481 21.6533 30 22.8133 30 24C30 25.5913 29.3679 27.1174 28.2426 28.2426C27.1174 29.3679 25.5913 30 24 30Z" fill="white"/>
<g filter="url(#filter0_d_635_681)">
<path d="M45 22.5H40.4306C40.0751 18.6602 38.3879 15.0656 35.6611 12.3389C32.9344 9.61212 29.3398 7.92488 25.5 7.56938V3C25.5 2.60218 25.342 2.22064 25.0607 1.93934C24.7794 1.65804 24.3978 1.5 24 1.5C23.6022 1.5 23.2206 1.65804 22.9393 1.93934C22.658 2.22064 22.5 2.60218 22.5 3V7.56938C18.6602 7.92488 15.0656 9.61212 12.3389 12.3389C9.61212 15.0656 7.92488 18.6602 7.56938 22.5H3C2.60218 22.5 2.22064 22.658 1.93934 22.9393C1.65804 23.2206 1.5 23.6022 1.5 24C1.5 24.3978 1.65804 24.7794 1.93934 25.0607C2.22064 25.342 2.60218 25.5 3 25.5H7.56938C7.92488 29.3398 9.61212 32.9344 12.3389 35.6611C15.0656 38.3879 18.6602 40.0751 22.5 40.4306V45C22.5 45.3978 22.658 45.7794 22.9393 46.0607C23.2206 46.342 23.6022 46.5 24 46.5C24.3978 46.5 24.7794 46.342 25.0607 46.0607C25.342 45.7794 25.5 45.3978 25.5 45V40.4306C29.3398 40.0751 32.9344 38.3879 35.6611 35.6611C38.3879 32.9344 40.0751 29.3398 40.4306 25.5H45C45.3978 25.5 45.7794 25.342 46.0607 25.0607C46.342 24.7794 46.5 24.3978 46.5 24C46.5 23.6022 46.342 23.2206 46.0607 22.9393C45.7794 22.658 45.3978 22.5 45 22.5ZM24 37.5C21.33 37.5 18.7199 36.7082 16.4998 35.2248C14.2797 33.7414 12.5494 31.633 11.5276 29.1662C10.5058 26.6994 10.2385 23.985 10.7594 21.3663C11.2803 18.7475 12.566 16.3421 14.4541 14.4541C16.3421 12.566 18.7475 11.2803 21.3663 10.7594C23.985 10.2385 26.6994 10.5058 29.1662 11.5276C31.633 12.5494 33.7414 14.2797 35.2248 16.4998C36.7082 18.7199 37.5 21.33 37.5 24C37.496 27.5792 36.0724 31.0107 33.5416 33.5416C31.0107 36.0724 27.5792 37.496 24 37.5ZM24 16.5C22.5166 16.5 21.0666 16.9399 19.8332 17.764C18.5999 18.5881 17.6386 19.7594 17.0709 21.1299C16.5032 22.5003 16.3547 24.0083 16.6441 25.4632C16.9335 26.918 17.6478 28.2544 18.6967 29.3033C19.7456 30.3522 21.082 31.0665 22.5368 31.3559C23.9917 31.6453 25.4997 31.4968 26.8701 30.9291C28.2406 30.3614 29.4119 29.4001 30.236 28.1668C31.0601 26.9334 31.5 25.4834 31.5 24C31.5 22.0109 30.7098 20.1032 29.3033 18.6967C27.8968 17.2902 25.9891 16.5 24 16.5ZM24 28.5C23.11 28.5 22.24 28.2361 21.4999 27.7416C20.7599 27.2471 20.1831 26.5443 19.8425 25.7221C19.5019 24.8998 19.4128 23.995 19.5865 23.1221C19.7601 22.2492 20.1887 21.4474 20.818 20.818C21.4474 20.1887 22.2492 19.7601 23.1221 19.5865C23.995 19.4128 24.8998 19.5019 25.7221 19.8425C26.5443 20.1831 27.2471 20.7599 27.7416 21.4999C28.2361 22.24 28.5 23.11 28.5 24C28.5 25.1935 28.0259 26.3381 27.182 27.182C26.3381 28.0259 25.1935 28.5 24 28.5Z" fill="white"/>
</g>
<defs>
<filter id="filter0_d_635_681" x="1.5" y="1.5" width="45" height="46" filterUnits="userSpaceOnUse" color-interpolation-filters="sRGB">
<feFlood flood-opacity="0" result="BackgroundImageFix"/>
<feColorMatrix in="SourceAlpha" type="matrix" values="0 0 0 0 0 0 0 0 0 0 0 0 0 0 0 0 0 0 127 0" result="hardAlpha"/>
<feOffset dy="1"/>
<feComposite in2="hardAlpha" operator="out"/>
<feColorMatrix type="matrix" values="0 0 0 0 0 0 0 0 0 0 0 0 0 0 0 0 0 0 0.25 0"/>
<feBlend mode="normal" in2="BackgroundImageFix" result="effect1_dropShadow_635_681"/>
<feBlend mode="normal" in="SourceGraphic" in2="effect1_dropShadow_635_681" result="shape"/>
</filter>
</defs>
</svg>
