<svg width="30" height="30" viewBox="0 0 30 30" fill="none" xmlns="http://www.w3.org/2000/svg">
<mask id="path-1-inside-1_156_984" fill="white">
<path d="M30 30L0 30L-5.24537e-06 5.24537e-06L5.99999 4.19629e-06C19.2548 1.87874e-06 30 10.7452 30 24L30 30Z"/>
</mask>
<path d="M30 30L0 30L30 30M-5.42021e-06 -0.999995L5.99999 -0.999996C19.8071 -0.999998 31 10.1929 31 24L29 24C29 11.2975 18.7025 1 5.99999 1L-5.07052e-06 1.00001L-5.42021e-06 -0.999995ZM5.99999 -0.999996C19.8071 -0.999998 31 10.1929 31 24L31 30L29 30L29 24C29 11.2975 18.7025 1 5.99999 1L5.99999 -0.999996ZM5.99999 1M0 30L-5.24537e-06 5.24537e-06L0 30" fill="#FF9025" mask="url(#path-1-inside-1_156_984)"/>
</svg>
