<svg width="87" height="74" viewBox="0 0 87 74" fill="none" xmlns="http://www.w3.org/2000/svg">
<path d="M42.854 73.9525L42.8569 22.1302C42.8569 20.1809 42.9077 17.3436 42.9063 15.338L42.9077 15.1611C43.9239 15.7431 48.2672 18.4883 49.5127 19.3079C49.6564 19.4166 50.1689 19.759 50.2719 19.8771C52.8878 21.5041 58.2516 25.3399 60.6991 27.2257L54.0186 34.5275C53.0112 35.6317 51.3374 37.5759 50.2937 38.5173L50.3024 43.8746C54.1028 39.3463 59.5581 33.5414 63.6343 29.2059C65.3298 30.3792 68.0749 32.1699 69.6238 33.3945C65.1644 38.31 60.567 43.5462 56.0292 48.3516C61.7515 54.5055 67.2504 61.0019 72.9292 67.2041C74.8091 69.2571 77.0737 72.0534 78.9695 73.9489L69.1085 73.9554L51.1879 53.8612L50.3039 55.0224L50.2937 58.2507C54.7923 62.7786 59.9254 69.1191 64.3964 73.9441L54.8693 73.9764C53.5468 73.9758 51.4971 74.04 50.269 73.9592L42.854 73.9525Z" fill="white"/>
<path d="M50.2937 58.2507C54.7923 62.7786 59.9254 69.1191 64.3964 73.9441L54.8693 73.9764C53.5468 73.9758 51.4971 74.04 50.269 73.9592C50.2385 68.723 50.2472 63.4866 50.2937 58.2507Z" fill="#DD8939"/>
<path d="M50.2719 19.8771C52.8878 21.5041 58.2516 25.3399 60.6991 27.2257L54.0186 34.5275C53.0112 35.6317 51.3374 37.5759 50.2937 38.5173L50.2574 36.3243C50.4403 31.3209 50.2632 24.9769 50.2719 19.8771Z" fill="#DD8939"/>
<path d="M0 32.4209L43.4855 0L56.8246 9.93959C59.0486 11.5931 61.7138 13.6858 63.9696 15.205L63.9551 7.50125L71.553 7.49616L71.5574 20.9173C76.3159 24.4984 82.4505 28.7529 86.9956 32.4416C86.9797 35.4288 86.9811 38.4161 87 41.4032C84.1693 39.3134 81.3226 37.2436 78.4614 35.1938C77.5774 34.7344 75.3317 33.0955 74.4128 32.4531L43.4695 10.8015L22.6079 25.3803L14.4047 31.1661C12.9675 32.1673 11.1573 33.4908 9.65778 34.3404L0.0246666 41.3584L0 32.4209Z" fill="white"/>
<path d="M43.5291 6.63377L68.2709 26.8431C70.3685 28.5728 72.4778 30.2893 74.5972 31.9926C75.6177 32.8103 77.6021 34.309 78.4614 35.1938C77.5774 34.7344 75.3317 33.0955 74.4128 32.4531L43.4695 10.8015L22.6079 25.3803L14.4047 31.1661C12.9675 32.1673 11.1573 33.4908 9.65778 34.3404C10.5172 33.4322 12.2084 32.1391 13.2463 31.2993C15.2873 29.6587 17.3167 28.0035 19.3345 26.3338L33.4125 14.8362C36.6381 12.1966 40.2222 9.12783 43.5291 6.63377Z" fill="#DD8939"/>
<path d="M39.3004 17.9984C39.3004 18.5077 39.3019 25.9811 39.3004 26.9084L16.4065 43.0022L16.4094 46.794L35.0035 46.7889C34.9382 49.2089 34.9919 51.8978 34.9919 54.3376L16.4051 54.3342L16.3905 66.3919L35.2866 66.3931L39.2902 66.4006V73.9559L8.82892 73.9579L8.83182 39.424C11.8353 37.0145 16.4501 33.9953 19.6785 31.742L39.3004 17.9984Z" fill="white"/>
<path d="M72.5257 35.4404C74.2313 36.6059 76.5859 38.1245 78.1479 39.4007L78.1624 67.787C76.011 65.2637 73.7233 62.8629 71.5443 60.3649C71.2351 60.01 70.8577 59.61 70.6022 59.2217C67.5886 56.175 63.7766 51.6331 60.8152 48.342C64.0248 44.8234 67.3041 41.026 70.5761 37.6048C71.2119 36.8701 71.8608 36.1484 72.5257 35.4404Z" fill="white"/>
<path d="M70.5761 37.6048C70.579 44.6945 70.7184 52.1703 70.6022 59.2217C67.5886 56.175 63.7766 51.6331 60.8152 48.342C64.0248 44.8234 67.3041 41.026 70.5761 37.6048Z" fill="#DD8939"/>
</svg>
