<svg width="50" height="42" viewBox="0 0 50 42" fill="none" xmlns="http://www.w3.org/2000/svg">
  <style>
    .logo-dark { fill: #062753; }
    .logo-accent { fill: #DD8939; }
    @media (prefers-color-scheme: dark) {
      .logo-dark { fill: #ffffff; }
    }
  </style>
  <path class="logo-dark" d="M24.481 41.973L24.4826 12.5604C24.4826 11.4541 24.5117 9.84369 24.5108 8.70537L24.5117 8.60495C25.0921 8.93528 27.5733 10.4934 28.2848 10.9586C28.3669 11.0202 28.6597 11.2146 28.7186 11.2816C30.2129 12.2051 33.2771 14.3821 34.6752 15.4525L30.8589 19.5967C30.2834 20.2234 29.3272 21.3269 28.731 21.8612L28.736 24.9018C30.907 22.3317 34.0234 19.037 36.352 16.5763C37.3206 17.2423 38.8888 18.2586 39.7736 18.9536C37.2261 21.7435 34.5998 24.7154 32.0075 27.4428C35.2765 30.9355 38.4177 34.6227 41.6619 38.1429C42.7358 39.3081 44.0294 40.8952 45.1125 41.971L39.4792 41.9747L29.2418 30.5699L28.7368 31.229L28.731 33.0612C31.3009 35.6311 34.2332 39.2297 36.7874 41.9683L31.3449 41.9866C30.5894 41.9863 29.4185 42.0227 28.7169 41.9768L24.481 41.973Z"/>
  <path class="logo-accent" d="M28.731 33.0612C31.3009 35.6311 34.2332 39.2297 36.7874 41.9683L31.3449 41.9866C30.5894 41.9863 29.4185 42.0227 28.7169 41.9768C28.6995 39.0049 28.7045 36.033 28.731 33.0612Z"/>
  <path class="logo-accent" d="M28.7186 11.2816C30.2129 12.2051 33.2771 14.3821 34.6752 15.4525L30.8589 19.5967C30.2834 20.2234 29.3272 21.3269 28.731 21.8612L28.7103 20.6165C28.8148 17.7768 28.7136 14.1761 28.7186 11.2816Z"/>
  <path class="logo-dark" d="M0 18.4011L24.8417 0L32.4619 5.64139C33.7323 6.57986 35.2549 7.76764 36.5436 8.62989L36.5353 4.25747L40.8757 4.25458L40.8782 11.872C43.5965 13.9045 47.1011 16.3192 49.6975 18.4128C49.6884 20.1082 49.6892 21.8037 49.7 23.4991C48.0829 22.313 46.4567 21.1383 44.8222 19.9748C44.3172 19.7141 43.0343 18.7839 42.5094 18.4193L24.8326 6.13061L12.9151 14.4051L8.22888 17.6889C7.4079 18.2571 6.37379 19.0083 5.51715 19.4905L0.0140912 23.4737L0 18.4011Z"/>
  <path class="logo-accent" d="M24.8666 3.76511L39.0007 15.2353C40.199 16.217 41.404 17.1912 42.6147 18.1579C43.1977 18.6221 44.3313 19.4727 44.8222 19.9748C44.3172 19.7141 43.0343 18.7839 42.5094 18.4193L24.8326 6.13061L12.9151 14.4051L8.22888 17.6889C7.4079 18.2571 6.37379 19.0083 5.51715 19.4905C6.00808 18.975 6.9742 18.2411 7.56713 17.7644C8.73309 16.8333 9.89241 15.8939 11.0451 14.9462L19.0874 8.42054C20.93 6.92241 22.9775 5.18066 24.8666 3.76511Z"/>
  <path class="logo-dark" d="M22.4509 10.2153C22.4509 10.5043 22.4518 14.746 22.4509 15.2723L9.37245 24.4066L9.37411 26.5587L19.9963 26.5559C19.959 27.9294 19.9896 29.4555 19.9896 30.8402L9.37163 30.8383L9.36333 37.6819L20.158 37.6826L22.4451 37.6868V41.9749L5.04365 41.9761L5.04531 22.3758C6.76107 21.0082 9.39733 19.2946 11.2416 18.0157L22.4509 10.2153Z"/>
  <path class="logo-dark" d="M41.4313 20.1148C42.4057 20.7763 43.7508 21.6382 44.6431 22.3626L44.6514 38.4737C43.4224 37.0415 42.1155 35.6789 40.8707 34.2611C40.6941 34.0597 40.4785 33.8327 40.3325 33.6123C38.611 31.8831 36.4333 29.3053 34.7416 27.4373C36.5751 25.4403 38.4484 23.285 40.3176 21.3432C40.6808 20.9263 41.0515 20.5167 41.4313 20.1148Z"/>
  <path class="logo-accent" d="M40.3176 21.3432C40.3193 25.3672 40.3989 29.6102 40.3325 33.6123C38.611 31.8831 36.4333 29.3053 34.7416 27.4373C36.5751 25.4403 38.4484 23.285 40.3176 21.3432Z"/>
</svg>
