<svg width="20" height="20" viewBox="0 0 20 20" fill="none" xmlns="http://www.w3.org/2000/svg">
<path d="M14.25 0H5.25C3.85807 0.00148896 2.52358 0.555091 1.53933 1.53933C0.555091 2.52358 0.00148896 3.85807 0 5.25V14.25C0.00148896 15.6419 0.555091 16.9764 1.53933 17.9607C2.52358 18.9449 3.85807 19.4985 5.25 19.5H14.25C15.6419 19.4985 16.9764 18.9449 17.9607 17.9607C18.9449 16.9764 19.4985 15.6419 19.5 14.25V5.25C19.4985 3.85807 18.9449 2.52358 17.9607 1.53933C16.9764 0.555091 15.6419 0.00148896 14.25 0ZM9.75 14.25C8.85998 14.25 7.98995 13.9861 7.24993 13.4916C6.50991 12.9971 5.93314 12.2943 5.59254 11.4721C5.25195 10.6498 5.16283 9.74501 5.33647 8.87209C5.5101 7.99918 5.93868 7.19736 6.56802 6.56802C7.19736 5.93868 7.99918 5.5101 8.87209 5.33647C9.74501 5.16283 10.6498 5.25195 11.4721 5.59254C12.2943 5.93314 12.9971 6.50991 13.4916 7.24993C13.9861 7.98995 14.25 8.85998 14.25 9.75C14.2488 10.9431 13.7743 12.087 12.9306 12.9306C12.087 13.7743 10.9431 14.2488 9.75 14.25ZM15.375 5.25C15.1525 5.25 14.935 5.18402 14.75 5.0604C14.565 4.93679 14.4208 4.76109 14.3356 4.55552C14.2505 4.34995 14.2282 4.12375 14.2716 3.90552C14.315 3.68729 14.4222 3.48684 14.5795 3.3295C14.7368 3.17217 14.9373 3.06502 15.1555 3.02162C15.3738 2.97821 15.6 3.00049 15.8055 3.08564C16.0111 3.17078 16.1868 3.31498 16.3104 3.49998C16.434 3.68499 16.5 3.9025 16.5 4.125C16.5 4.42337 16.3815 4.70952 16.1705 4.9205C15.9595 5.13147 15.6734 5.25 15.375 5.25ZM12.75 9.75C12.75 10.3433 12.5741 10.9234 12.2444 11.4167C11.9148 11.9101 11.4462 12.2946 10.8981 12.5216C10.3499 12.7487 9.74667 12.8081 9.16473 12.6924C8.58279 12.5766 8.04824 12.2909 7.62868 11.8713C7.20912 11.4518 6.9234 10.9172 6.80764 10.3353C6.69189 9.75333 6.7513 9.15013 6.97836 8.60195C7.20542 8.05377 7.58994 7.58524 8.08329 7.25559C8.57664 6.92595 9.15666 6.75 9.75 6.75C10.5456 6.75 11.3087 7.06607 11.8713 7.62868C12.4339 8.19129 12.75 8.95435 12.75 9.75Z" fill="#062753"/>
</svg>
