<svg width="247" height="60" viewBox="0 0 247 60" fill="none" xmlns="http://www.w3.org/2000/svg">
<path d="M34.9728 59.9615L34.9752 17.9434C34.9752 16.3629 35.0167 14.0624 35.0155 12.4362L35.0167 12.2928C35.8459 12.7647 39.3905 14.9905 40.4069 15.6551C40.5242 15.7432 40.9424 16.0208 41.0265 16.1166C43.1613 17.4358 47.5387 20.5459 49.536 22.0749L44.0842 27.9953C43.262 28.8906 41.8961 30.467 41.0443 31.2303L41.0514 35.574C44.1529 31.9024 48.6049 27.1958 51.9315 23.6805C53.3152 24.6318 55.5554 26.0837 56.8194 27.0766C53.1801 31.0622 49.4282 35.3077 45.7249 39.204C50.3949 44.1936 54.8825 49.461 59.5169 54.4898C61.0511 56.1544 62.8992 58.4217 64.4464 59.9585L56.3989 59.9639L41.774 43.6712L41.0526 44.6128L41.0443 47.2303C44.7156 50.9016 48.9046 56.0425 52.5534 59.9547L44.7784 59.9808C43.6991 59.9804 42.0264 60.0324 41.0241 59.9669L34.9728 59.9615Z" fill="#062753"/>
<path d="M41.0443 47.2303C44.7156 50.9016 48.9046 56.0425 52.5534 59.9547L44.7784 59.9808C43.6991 59.9804 42.0264 60.0324 41.0241 59.9669C40.9993 55.7214 41.0064 51.4757 41.0443 47.2303Z" fill="#DD8939"/>
<path d="M41.0265 16.1166C43.1613 17.4358 47.5387 20.5459 49.536 22.0749L44.0842 27.9953C43.262 28.8906 41.8961 30.467 41.0443 31.2303L41.0147 29.4522C41.1639 25.3954 41.0194 20.2515 41.0265 16.1166Z" fill="#DD8939"/>
<path d="M0 26.2872L35.4881 0L46.3741 8.05912C48.1891 9.3998 50.3641 11.0966 52.2051 12.3284L52.1933 6.08209L58.3939 6.07797L58.3974 16.96C62.2808 19.8636 67.2872 23.3132 70.9964 26.304C70.9834 28.726 70.9846 31.1482 71 33.5702C68.6899 31.8757 66.3667 30.1975 64.0317 28.5355C63.3103 28.163 61.4776 26.8342 60.7277 26.3133L35.4751 8.75801L18.4501 20.5787L11.7555 25.2698C10.5827 26.0816 9.10541 27.1547 7.88164 27.8436L0.0201302 33.5339L0 26.2872Z" fill="#062753"/>
<path d="M35.5237 5.37873L55.7153 21.7647C57.4272 23.1672 59.1485 24.5589 60.8781 25.9399C61.711 26.6029 63.3304 27.8181 64.0317 28.5355C63.3103 28.163 61.4776 26.8342 60.7277 26.3133L35.4751 8.75801L18.4501 20.5787L11.7555 25.2698C10.5827 26.0816 9.10541 27.1547 7.88164 27.8436C8.58297 27.1072 9.96314 26.0587 10.8102 25.3778C12.4758 24.0476 14.132 22.7055 15.7787 21.3517L27.2677 12.0293C29.9 9.88916 32.825 7.40094 35.5237 5.37873Z" fill="#DD8939"/>
<path d="M32.0727 14.5933C32.0727 15.0062 32.0739 21.0658 32.0727 21.8176L13.3892 34.8666L13.3916 37.9411L28.5661 37.9369C28.5128 39.8991 28.5566 42.0793 28.5566 44.0575L13.388 44.0548L13.3762 53.8313L28.7971 53.8322L32.0644 53.8384V59.9642L7.20521 59.9659L7.20758 31.9654C9.65867 30.0117 13.4248 27.5637 16.0595 25.7368L32.0727 14.5933Z" fill="#062753"/>
<path d="M59.1876 28.7355C60.5796 29.6804 62.5011 30.9117 63.7758 31.9465L63.7877 54.9624C62.032 52.9165 60.165 50.9699 58.3868 48.9445C58.1344 48.6568 57.8264 48.3324 57.6179 48.0176C55.1585 45.5473 52.0476 41.8647 49.6308 39.1962C52.2501 36.3433 54.9263 33.2643 57.5966 30.4903C58.1155 29.8947 58.645 29.3095 59.1876 28.7355Z" fill="#062753"/>
<path d="M57.5966 30.4903C57.5989 36.2388 57.7127 42.3003 57.6179 48.0176C55.1585 45.5473 52.0476 41.8647 49.6308 39.1962C52.2501 36.3433 54.9263 33.2643 57.5966 30.4903Z" fill="#DD8939"/>
<path d="M83 29.382V11.862H86.336V29.382H83ZM85.856 29.382V26.502H93.8V29.382H85.856ZM85.856 21.918V19.038H93.176V21.918H85.856ZM85.856 14.742V11.862H93.608V14.742H85.856Z" fill="#062753"/>
<path d="M97.2969 29.382V11.862H100.705V29.382H97.2969ZM100.225 29.382V26.382H107.785V29.382H100.225Z" fill="#062753"/>
<path d="M110.562 29.382V11.862H113.971V29.382H110.562ZM113.49 29.382V26.382H121.05V29.382H113.49Z" fill="#062753"/>
<path d="M123.828 29.382V11.862H127.164V29.382H123.828ZM126.684 29.382V26.502H134.628V29.382H126.684ZM126.684 21.918V19.038H134.004V21.918H126.684ZM126.684 14.742V11.862H134.436V14.742H126.684Z" fill="#062753"/>
<path d="M153.961 29.382L147.097 21.99C146.361 21.19 145.777 20.494 145.345 19.902C144.929 19.31 144.625 18.742 144.433 18.198C144.257 17.654 144.169 17.062 144.169 16.422C144.169 15.43 144.377 14.582 144.793 13.878C145.209 13.158 145.857 12.606 146.737 12.222C147.633 11.838 148.785 11.646 150.193 11.646C150.753 11.646 151.345 11.67 151.969 11.718C152.609 11.766 153.169 11.83 153.649 11.91V14.694C153.329 14.646 152.929 14.606 152.449 14.574C151.969 14.526 151.489 14.494 151.009 14.478C150.545 14.446 150.161 14.43 149.857 14.43C148.849 14.43 148.161 14.614 147.793 14.982C147.441 15.35 147.265 15.878 147.265 16.566C147.265 17.174 147.409 17.75 147.697 18.294C147.985 18.822 148.441 19.43 149.065 20.118L157.705 29.382H153.961ZM148.153 29.862C146.873 29.862 145.753 29.614 144.793 29.118C143.849 28.622 143.105 27.95 142.561 27.102C142.033 26.254 141.769 25.31 141.769 24.27V23.934C141.769 22.782 142.097 21.758 142.753 20.862C143.409 19.95 144.241 19.246 145.249 18.75L146.689 20.622C146.177 20.926 145.745 21.374 145.393 21.966C145.041 22.542 144.865 23.206 144.865 23.958C144.865 24.598 145.001 25.158 145.273 25.638C145.561 26.102 145.961 26.462 146.473 26.718C146.985 26.974 147.593 27.102 148.297 27.102C149.289 27.102 150.177 26.83 150.961 26.286C151.761 25.742 152.385 24.91 152.833 23.79C153.297 22.654 153.529 21.206 153.529 19.446H156.457C156.457 21.11 156.249 22.59 155.833 23.886C155.417 25.166 154.833 26.254 154.081 27.15C153.329 28.03 152.449 28.702 151.441 29.166C150.433 29.63 149.337 29.862 148.153 29.862ZM151.105 19.878V17.406H157.753V19.878H151.105Z" fill="#062753"/>
<path d="M177.039 29.382L170.632 21.198H168.16L175.768 11.862H179.68L172.815 20.262L172.719 18.582L181.191 29.382H177.039ZM165.688 29.382V11.862H169.095V29.382H165.688Z" fill="#062753"/>
<path d="M183.148 29.382V11.742H186.556V29.382H183.148ZM193.852 29.382L188.476 21.75H192.292L197.836 29.382H193.852ZM185.548 23.526V20.766H190.012C190.636 20.766 191.172 20.638 191.62 20.382C192.084 20.126 192.444 19.766 192.7 19.302C192.956 18.838 193.084 18.31 193.084 17.718C193.084 17.11 192.956 16.574 192.7 16.11C192.444 15.646 192.084 15.286 191.62 15.03C191.172 14.774 190.636 14.646 190.012 14.646H185.548V11.742H189.652C191.06 11.742 192.276 11.95 193.3 12.366C194.34 12.782 195.14 13.414 195.7 14.262C196.26 15.11 196.54 16.174 196.54 17.454V17.838C196.54 19.134 196.252 20.198 195.676 21.03C195.116 21.862 194.324 22.486 193.3 22.902C192.276 23.318 191.06 23.526 189.652 23.526H185.548Z" fill="#062753"/>
<path d="M200.47 29.382V11.862H203.878V29.382H200.47Z" fill="#062753"/>
<path d="M214.226 29.838C212.674 29.838 211.362 29.59 210.29 29.094C209.234 28.598 208.426 27.918 207.866 27.054C207.306 26.174 207.026 25.182 207.026 24.078H210.362C210.362 24.542 210.49 24.998 210.746 25.446C211.002 25.878 211.41 26.23 211.97 26.502C212.546 26.774 213.298 26.91 214.226 26.91C215.058 26.91 215.754 26.79 216.314 26.55C216.874 26.31 217.29 25.998 217.562 25.614C217.834 25.214 217.97 24.766 217.97 24.27C217.97 23.646 217.706 23.15 217.178 22.782C216.65 22.398 215.834 22.158 214.73 22.062L213.194 21.942C211.514 21.798 210.17 21.278 209.162 20.382C208.17 19.47 207.674 18.27 207.674 16.782C207.674 15.662 207.938 14.702 208.466 13.902C208.994 13.086 209.73 12.462 210.674 12.03C211.634 11.582 212.754 11.358 214.034 11.358C215.362 11.358 216.506 11.59 217.466 12.054C218.426 12.518 219.17 13.174 219.698 14.022C220.226 14.854 220.49 15.838 220.49 16.974H217.154C217.154 16.494 217.034 16.054 216.794 15.654C216.57 15.238 216.226 14.91 215.762 14.67C215.314 14.414 214.738 14.286 214.034 14.286C213.362 14.286 212.802 14.398 212.354 14.622C211.906 14.846 211.57 15.15 211.346 15.534C211.122 15.918 211.01 16.334 211.01 16.782C211.01 17.326 211.21 17.806 211.61 18.222C212.01 18.622 212.642 18.854 213.506 18.918L215.042 19.062C216.29 19.158 217.386 19.422 218.33 19.854C219.274 20.286 220.002 20.87 220.514 21.606C221.042 22.342 221.306 23.23 221.306 24.27C221.306 25.374 221.018 26.35 220.442 27.198C219.866 28.03 219.042 28.678 217.97 29.142C216.914 29.606 215.666 29.838 214.226 29.838Z" fill="#062753"/>
<path d="M222.942 19.758V17.886H223.518C223.982 17.886 224.35 17.814 224.622 17.67C224.894 17.526 225.094 17.286 225.222 16.95C225.35 16.598 225.414 16.134 225.414 15.558V13.782L226.11 15.126C225.998 15.206 225.838 15.278 225.63 15.342C225.422 15.39 225.206 15.414 224.982 15.414C224.454 15.414 224.014 15.254 223.662 14.934C223.31 14.598 223.134 14.142 223.134 13.566C223.134 13.022 223.302 12.566 223.638 12.198C223.974 11.814 224.454 11.622 225.078 11.622C225.478 11.622 225.846 11.718 226.182 11.91C226.534 12.086 226.814 12.406 227.022 12.87C227.23 13.318 227.334 13.942 227.334 14.742V15.15C227.334 16.286 227.174 17.19 226.854 17.862C226.55 18.534 226.102 19.022 225.51 19.326C224.918 19.614 224.198 19.758 223.35 19.758H222.942Z" fill="#062753"/>
<path d="M235.999 29.838C234.447 29.838 233.135 29.59 232.063 29.094C231.007 28.598 230.199 27.918 229.639 27.054C229.079 26.174 228.799 25.182 228.799 24.078H232.135C232.135 24.542 232.263 24.998 232.519 25.446C232.775 25.878 233.183 26.23 233.743 26.502C234.319 26.774 235.071 26.91 235.999 26.91C236.831 26.91 237.527 26.79 238.087 26.55C238.647 26.31 239.063 25.998 239.335 25.614C239.607 25.214 239.743 24.766 239.743 24.27C239.743 23.646 239.479 23.15 238.951 22.782C238.423 22.398 237.607 22.158 236.503 22.062L234.967 21.942C233.287 21.798 231.943 21.278 230.935 20.382C229.943 19.47 229.447 18.27 229.447 16.782C229.447 15.662 229.711 14.702 230.239 13.902C230.767 13.086 231.503 12.462 232.447 12.03C233.407 11.582 234.527 11.358 235.807 11.358C237.135 11.358 238.279 11.59 239.239 12.054C240.199 12.518 240.943 13.174 241.471 14.022C241.999 14.854 242.263 15.838 242.263 16.974H238.927C238.927 16.494 238.807 16.054 238.567 15.654C238.343 15.238 237.999 14.91 237.535 14.67C237.087 14.414 236.511 14.286 235.807 14.286C235.135 14.286 234.575 14.398 234.127 14.622C233.679 14.846 233.343 15.15 233.119 15.534C232.895 15.918 232.783 16.334 232.783 16.782C232.783 17.326 232.983 17.806 233.383 18.222C233.783 18.622 234.415 18.854 235.279 18.918L236.815 19.062C238.063 19.158 239.159 19.422 240.103 19.854C241.047 20.286 241.775 20.87 242.287 21.606C242.815 22.342 243.079 23.23 243.079 24.27C243.079 25.374 242.791 26.35 242.215 27.198C241.639 28.03 240.815 28.678 239.743 29.142C238.687 29.606 237.439 29.838 235.999 29.838Z" fill="#062753"/>
<path d="M88.208 48.642C87.284 48.642 86.4907 48.4787 85.828 48.152C85.1653 47.8253 84.624 47.4007 84.204 46.878C83.7933 46.3553 83.49 45.786 83.294 45.17C83.098 44.554 83 43.9613 83 43.392V43.084C83 42.4493 83.098 41.824 83.294 41.208C83.4993 40.592 83.812 40.032 84.232 39.528C84.652 39.024 85.184 38.6227 85.828 38.324C86.4813 38.016 87.2513 37.862 88.138 37.862C89.062 37.862 89.8647 38.03 90.546 38.366C91.2367 38.6927 91.7873 39.1593 92.198 39.766C92.6087 40.3633 92.856 41.0633 92.94 41.866H90.938C90.8633 41.3993 90.6953 41.0073 90.434 40.69C90.182 40.3633 89.86 40.1207 89.468 39.962C89.076 39.794 88.6327 39.71 88.138 39.71C87.634 39.71 87.186 39.7987 86.794 39.976C86.402 40.144 86.0753 40.3867 85.814 40.704C85.5527 41.0213 85.352 41.3947 85.212 41.824C85.0813 42.2533 85.016 42.7293 85.016 43.252C85.016 43.756 85.0813 44.2227 85.212 44.652C85.352 45.0813 85.5573 45.4593 85.828 45.786C86.0987 46.1033 86.43 46.3507 86.822 46.528C87.2233 46.7053 87.6853 46.794 88.208 46.794C88.9733 46.794 89.6173 46.6073 90.14 46.234C90.672 45.8513 90.994 45.3193 91.106 44.638H93.108C93.0147 45.366 92.7673 46.0333 92.366 46.64C91.9647 47.2467 91.414 47.732 90.714 48.096C90.014 48.46 89.1787 48.642 88.208 48.642Z" fill="#062753"/>
<path d="M99.5876 48.642C98.6636 48.642 97.8609 48.4787 97.1796 48.152C96.5076 47.8253 95.9476 47.4007 95.4996 46.878C95.0609 46.346 94.7296 45.7767 94.5056 45.17C94.2909 44.554 94.1836 43.9613 94.1836 43.392V43.084C94.1836 42.4587 94.2956 41.838 94.5196 41.222C94.7436 40.5967 95.0796 40.032 95.5276 39.528C95.9849 39.024 96.5496 38.6227 97.2216 38.324C97.8936 38.016 98.6823 37.862 99.5876 37.862C100.484 37.862 101.268 38.016 101.94 38.324C102.612 38.6227 103.172 39.024 103.62 39.528C104.077 40.032 104.418 40.5967 104.642 41.222C104.866 41.838 104.978 42.4587 104.978 43.084V43.392C104.978 43.9613 104.866 44.554 104.642 45.17C104.427 45.7767 104.096 46.346 103.648 46.878C103.209 47.4007 102.649 47.8253 101.968 48.152C101.296 48.4787 100.502 48.642 99.5876 48.642ZM99.5876 46.794C100.11 46.794 100.577 46.7007 100.988 46.514C101.408 46.3273 101.762 46.0707 102.052 45.744C102.35 45.408 102.574 45.03 102.724 44.61C102.882 44.1807 102.962 43.728 102.962 43.252C102.962 42.7387 102.882 42.2673 102.724 41.838C102.574 41.4087 102.35 41.0353 102.052 40.718C101.762 40.4007 101.408 40.1533 100.988 39.976C100.568 39.7987 100.101 39.71 99.5876 39.71C99.0649 39.71 98.5936 39.7987 98.1736 39.976C97.7536 40.1533 97.3943 40.4007 97.0956 40.718C96.8063 41.0353 96.5823 41.4087 96.4236 41.838C96.2743 42.2673 96.1996 42.7387 96.1996 43.252C96.1996 43.728 96.2743 44.1807 96.4236 44.61C96.5823 45.03 96.8063 45.408 97.0956 45.744C97.3943 46.0707 97.7536 46.3273 98.1736 46.514C98.5936 46.7007 99.0649 46.794 99.5876 46.794Z" fill="#062753"/>
<path d="M106.899 48.376V38.156H110.161L114.459 46.724H114.921L114.641 46.976V38.156H116.517V48.376H113.241L108.943 39.808H108.467L108.747 39.556V48.376H106.899Z" fill="#062753"/>
<path d="M122.526 48.642C121.62 48.642 120.855 48.4973 120.229 48.208C119.613 47.9187 119.142 47.522 118.815 47.018C118.489 46.5047 118.326 45.926 118.326 45.282H120.271C120.271 45.5527 120.346 45.8187 120.495 46.08C120.645 46.332 120.883 46.5373 121.209 46.696C121.545 46.8547 121.984 46.934 122.526 46.934C123.011 46.934 123.417 46.864 123.743 46.724C124.07 46.584 124.313 46.402 124.472 46.178C124.63 45.9447 124.709 45.6833 124.709 45.394C124.709 45.03 124.556 44.7407 124.248 44.526C123.94 44.302 123.464 44.162 122.819 44.106L121.924 44.036C120.944 43.952 120.16 43.6487 119.571 43.126C118.993 42.594 118.703 41.894 118.703 41.026C118.703 40.3727 118.858 39.8127 119.166 39.346C119.473 38.87 119.903 38.506 120.453 38.254C121.014 37.9927 121.667 37.862 122.414 37.862C123.188 37.862 123.855 37.9973 124.416 38.268C124.976 38.5387 125.41 38.9213 125.717 39.416C126.025 39.9013 126.18 40.4753 126.18 41.138H124.234C124.234 40.858 124.163 40.6013 124.023 40.368C123.893 40.1253 123.692 39.934 123.422 39.794C123.16 39.6447 122.824 39.57 122.414 39.57C122.021 39.57 121.695 39.6353 121.433 39.766C121.172 39.8967 120.976 40.074 120.846 40.298C120.715 40.522 120.65 40.7647 120.65 41.026C120.65 41.3433 120.766 41.6233 121 41.866C121.233 42.0993 121.601 42.2347 122.105 42.272L123.001 42.356C123.729 42.412 124.369 42.566 124.92 42.818C125.47 43.07 125.895 43.4107 126.194 43.84C126.501 44.2693 126.655 44.7873 126.655 45.394C126.655 46.038 126.487 46.6073 126.152 47.102C125.816 47.5873 125.335 47.9653 124.709 48.236C124.093 48.5067 123.366 48.642 122.526 48.642Z" fill="#062753"/>
<path d="M130.216 48.376V39.626H132.204V48.376H130.216ZM127.262 39.906V38.156H135.158V39.906H127.262Z" fill="#062753"/>
<path d="M136.745 48.376V38.086H138.733V48.376H136.745ZM142.989 48.376L139.853 43.924H142.079L145.313 48.376H142.989ZM138.145 44.96V43.35H140.749C141.113 43.35 141.425 43.2753 141.687 43.126C141.957 42.9767 142.167 42.7667 142.317 42.496C142.466 42.2253 142.541 41.9173 142.541 41.572C142.541 41.2173 142.466 40.9047 142.317 40.634C142.167 40.3633 141.957 40.1533 141.687 40.004C141.425 39.8547 141.113 39.78 140.749 39.78H138.145V38.086H140.539C141.36 38.086 142.069 38.2073 142.667 38.45C143.273 38.6927 143.74 39.0613 144.067 39.556C144.393 40.0507 144.557 40.6713 144.557 41.418V41.642C144.557 42.398 144.389 43.0187 144.053 43.504C143.726 43.9893 143.264 44.3533 142.667 44.596C142.069 44.8387 141.36 44.96 140.539 44.96H138.145Z" fill="#062753"/>
<path d="M150.953 48.642C150.001 48.642 149.198 48.46 148.545 48.096C147.891 47.732 147.392 47.2233 147.047 46.57C146.711 45.9073 146.543 45.1327 146.543 44.246V38.156H148.531V44.358C148.531 44.8433 148.624 45.2727 148.811 45.646C148.997 46.01 149.268 46.2947 149.623 46.5C149.987 46.696 150.43 46.794 150.953 46.794C151.466 46.794 151.9 46.696 152.255 46.5C152.619 46.2947 152.889 46.01 153.067 45.646C153.253 45.282 153.347 44.8527 153.347 44.358V38.156H155.335V44.246C155.335 45.1327 155.167 45.9073 154.831 46.57C154.504 47.2233 154.014 47.732 153.361 48.096C152.707 48.46 151.905 48.642 150.953 48.642Z" fill="#062753"/>
<path d="M162.269 48.642C161.345 48.642 160.551 48.4787 159.889 48.152C159.226 47.8253 158.685 47.4007 158.265 46.878C157.854 46.3553 157.551 45.786 157.355 45.17C157.159 44.554 157.061 43.9613 157.061 43.392V43.084C157.061 42.4493 157.159 41.824 157.355 41.208C157.56 40.592 157.873 40.032 158.293 39.528C158.713 39.024 159.245 38.6227 159.889 38.324C160.542 38.016 161.312 37.862 162.199 37.862C163.123 37.862 163.925 38.03 164.607 38.366C165.297 38.6927 165.848 39.1593 166.259 39.766C166.669 40.3633 166.917 41.0633 167.001 41.866H164.999C164.924 41.3993 164.756 41.0073 164.495 40.69C164.243 40.3633 163.921 40.1207 163.529 39.962C163.137 39.794 162.693 39.71 162.199 39.71C161.695 39.71 161.247 39.7987 160.855 39.976C160.463 40.144 160.136 40.3867 159.875 40.704C159.613 41.0213 159.413 41.3947 159.273 41.824C159.142 42.2533 159.077 42.7293 159.077 43.252C159.077 43.756 159.142 44.2227 159.273 44.652C159.413 45.0813 159.618 45.4593 159.889 45.786C160.159 46.1033 160.491 46.3507 160.883 46.528C161.284 46.7053 161.746 46.794 162.269 46.794C163.034 46.794 163.678 46.6073 164.201 46.234C164.733 45.8513 165.055 45.3193 165.167 44.638H167.169C167.075 45.366 166.828 46.0333 166.427 46.64C166.025 47.2467 165.475 47.732 164.775 48.096C164.075 48.46 163.239 48.642 162.269 48.642Z" fill="#062753"/>
<path d="M170.78 48.376V39.626H172.768V48.376H170.78ZM167.826 39.906V38.156H175.722V39.906H167.826Z" fill="#062753"/>
<path d="M177.337 48.376V38.156H179.325V48.376H177.337Z" fill="#062753"/>
<path d="M186.677 48.642C185.753 48.642 184.951 48.4787 184.269 48.152C183.597 47.8253 183.037 47.4007 182.589 46.878C182.151 46.346 181.819 45.7767 181.595 45.17C181.381 44.554 181.273 43.9613 181.273 43.392V43.084C181.273 42.4587 181.385 41.838 181.609 41.222C181.833 40.5967 182.169 40.032 182.617 39.528C183.075 39.024 183.639 38.6227 184.311 38.324C184.983 38.016 185.772 37.862 186.677 37.862C187.573 37.862 188.357 38.016 189.029 38.324C189.701 38.6227 190.261 39.024 190.709 39.528C191.167 40.032 191.507 40.5967 191.731 41.222C191.955 41.838 192.067 42.4587 192.067 43.084V43.392C192.067 43.9613 191.955 44.554 191.731 45.17C191.517 45.7767 191.185 46.346 190.737 46.878C190.299 47.4007 189.739 47.8253 189.057 48.152C188.385 48.4787 187.592 48.642 186.677 48.642ZM186.677 46.794C187.2 46.794 187.667 46.7007 188.077 46.514C188.497 46.3273 188.852 46.0707 189.141 45.744C189.44 45.408 189.664 45.03 189.813 44.61C189.972 44.1807 190.051 43.728 190.051 43.252C190.051 42.7387 189.972 42.2673 189.813 41.838C189.664 41.4087 189.44 41.0353 189.141 40.718C188.852 40.4007 188.497 40.1533 188.077 39.976C187.657 39.7987 187.191 39.71 186.677 39.71C186.155 39.71 185.683 39.7987 185.263 39.976C184.843 40.1533 184.484 40.4007 184.185 40.718C183.896 41.0353 183.672 41.4087 183.513 41.838C183.364 42.2673 183.289 42.7387 183.289 43.252C183.289 43.728 183.364 44.1807 183.513 44.61C183.672 45.03 183.896 45.408 184.185 45.744C184.484 46.0707 184.843 46.3273 185.263 46.514C185.683 46.7007 186.155 46.794 186.677 46.794Z" fill="#062753"/>
<path d="M193.989 48.376V38.156H197.251L201.549 46.724H202.011L201.731 46.976V38.156H203.607V48.376H200.331L196.033 39.808H195.557L195.837 39.556V48.376H193.989Z" fill="#062753"/>
</svg>
