<svg width="48" height="48" viewBox="0 0 48 48" fill="none" xmlns="http://www.w3.org/2000/svg">
<path opacity="0.2" d="M45 19.5L24 42L15 19.5L24 7.5H34.5L45 19.5Z" fill="white"/>
<g filter="url(#filter0_d_635_684)">
<path d="M46.1245 18.5119L35.6245 6.51187C35.4842 6.35153 35.3112 6.22294 35.1172 6.13468C34.9232 6.04642 34.7127 6.0005 34.4995 6H13.4996C13.2864 6.0005 13.0759 6.04642 12.8819 6.13468C12.6879 6.22294 12.5149 6.35153 12.3746 6.51187L1.87455 18.5119C1.6296 18.7915 1.49723 19.1522 1.50312 19.5239C1.50901 19.8957 1.65273 20.252 1.90643 20.5238L22.9064 43.0238C23.0468 43.1742 23.2166 43.2942 23.4053 43.3762C23.594 43.4583 23.7975 43.5006 24.0033 43.5006C24.2091 43.5006 24.4126 43.4583 24.6013 43.3762C24.79 43.2942 24.9598 43.1742 25.1002 43.0238L46.1002 20.5238C46.3528 20.251 46.4952 19.8942 46.4997 19.5225C46.5042 19.1508 46.3705 18.7906 46.1245 18.5119ZM41.6939 18H33.7495L26.9995 9H33.8189L41.6939 18ZM13.9833 21L19.6327 35.1244L6.45143 21H13.9833ZM30.7833 21L23.9995 37.9613L17.2158 21H30.7833ZM17.9995 18L23.9995 9.99938L29.9995 18H17.9995ZM34.0158 21H41.5477L28.3664 35.1244L34.0158 21ZM14.1802 9H20.9995L14.2496 18H6.30518L14.1802 9Z" fill="white"/>
</g>
<defs>
<filter id="filter0_d_635_684" x="1.50293" y="6" width="44.9971" height="38.5006" filterUnits="userSpaceOnUse" color-interpolation-filters="sRGB">
<feFlood flood-opacity="0" result="BackgroundImageFix"/>
<feColorMatrix in="SourceAlpha" type="matrix" values="0 0 0 0 0 0 0 0 0 0 0 0 0 0 0 0 0 0 127 0" result="hardAlpha"/>
<feOffset dy="1"/>
<feComposite in2="hardAlpha" operator="out"/>
<feColorMatrix type="matrix" values="0 0 0 0 0 0 0 0 0 0 0 0 0 0 0 0 0 0 0.25 0"/>
<feBlend mode="normal" in2="BackgroundImageFix" result="effect1_dropShadow_635_684"/>
<feBlend mode="normal" in="SourceGraphic" in2="effect1_dropShadow_635_684" result="shape"/>
</filter>
</defs>
</svg>
