<svg preserveAspectRatio="none" width="100%" height="100%" overflow="visible" style="display: block;" viewBox="0 0 1010 869" fill="none" xmlns="http://www.w3.org/2000/svg">
<g id="Vector" opacity="0.15" filter="url(#filter0_f_0_17)">
<path d="M498.243 818.506L498.274 279.975C498.274 259.718 498.805 230.233 498.79 209.391L498.805 207.552C509.434 213.601 554.864 242.129 567.892 250.646C569.395 251.775 574.755 255.333 575.833 256.561C603.194 273.469 659.299 313.329 684.899 332.927L615.022 408.806C604.485 420.281 586.978 440.485 576.061 450.268L576.152 505.94C615.903 458.882 672.964 398.559 715.6 353.504C733.335 365.698 762.048 384.306 778.249 397.032C731.604 448.113 683.517 502.528 636.052 552.464C695.907 616.415 753.423 683.925 812.823 748.378C832.486 769.713 856.173 798.771 876.003 818.469L772.859 818.537L585.414 609.72L576.167 621.787L576.061 655.335C623.115 702.389 676.806 768.278 723.572 818.419L623.92 818.754C610.088 818.748 588.648 819.415 575.802 818.576L498.243 818.506Z" fill="white"/>
<path d="M576.061 655.335C623.115 702.389 676.806 768.278 723.572 818.419L623.92 818.754C610.088 818.748 588.648 819.415 575.802 818.576C575.483 764.162 575.575 709.746 576.061 655.335Z" fill="var(--fill-0, #DD8939)"/>
<path d="M575.833 256.561C603.194 273.469 659.299 313.329 684.899 332.927L615.022 408.806C604.485 420.281 586.978 440.485 576.061 450.268L575.681 427.479C577.594 375.484 575.742 309.557 575.833 256.561Z" fill="var(--fill-0, #DD8939)"/>
<path d="M50 386.915L504.848 50L644.373 153.291C667.634 170.474 695.512 192.222 719.108 208.009L718.956 127.952L798.428 127.899L798.474 267.371C848.247 304.585 912.414 348.797 959.954 387.129C959.787 418.172 959.803 449.216 960 480.258C930.391 458.541 900.616 437.032 870.689 415.73C861.442 410.956 837.952 393.925 828.341 387.249L504.681 162.248L286.474 313.75L200.67 373.875C185.638 384.279 166.703 398.033 151.018 406.862L50.258 479.792L50 386.915Z" fill="white"/>
<path d="M505.304 118.937L764.098 328.95C786.038 346.926 808.101 364.763 830.269 382.463C840.944 390.961 861.7 406.535 870.689 415.73C861.442 410.956 837.952 393.925 828.341 387.249L504.681 162.248L286.474 313.75L200.67 373.875C185.638 384.279 166.703 398.033 151.018 406.862C160.007 397.424 177.697 383.986 188.553 375.258C209.902 358.21 231.129 341.009 252.234 323.658L399.487 204.176C433.226 176.746 470.715 144.855 505.304 118.937Z" fill="var(--fill-0, #DD8939)"/>
<path d="M461.073 237.037C461.073 242.33 461.088 319.993 461.073 329.629L221.608 496.874L221.639 536.278L416.129 536.225C415.446 561.374 416.007 589.316 416.007 614.67L221.593 614.635L221.441 739.937L419.09 739.95L460.967 740.028V818.541L142.348 818.562L142.379 459.69C173.794 434.65 222.064 403.275 255.833 379.86L461.073 237.037Z" fill="white"/>
<path d="M808.602 418.293C826.443 430.404 851.071 446.186 867.409 459.448L867.561 754.435C845.058 728.213 821.128 703.264 798.337 677.305C795.103 673.617 791.155 669.461 788.483 665.425C756.961 633.764 717.088 586.566 686.113 552.365C719.685 515.8 753.985 476.337 788.21 440.785C794.86 433.15 801.647 425.65 808.602 418.293Z" fill="white"/>
<path d="M788.21 440.785C788.24 514.461 789.698 592.148 788.483 665.425C756.961 633.764 717.088 586.566 686.113 552.365C719.685 515.8 753.985 476.337 788.21 440.785Z" fill="var(--fill-0, #DD8939)"/>
</g>
<defs>
<filter id="filter0_f_0_17" x="0" y="0" width="1010" height="869" filterUnits="userSpaceOnUse" color-interpolation-filters="sRGB">
<feFlood flood-opacity="0" result="BackgroundImageFix"/>
<feBlend mode="normal" in="SourceGraphic" in2="BackgroundImageFix" result="shape"/>
<feGaussianBlur stdDeviation="25" result="effect1_foregroundBlur_0_17"/>
</filter>
</defs>
</svg>
