<svg width="24" height="24" viewBox="0 0 24 24" fill="none" xmlns="http://www.w3.org/2000/svg">
<path opacity="0.2" d="M18.2644 14.1963L13.0997 16.0994L11.1966 21.2641C11.144 21.4065 11.0491 21.5294 10.9245 21.6162C10.8 21.703 10.6518 21.7495 10.5 21.7495C10.3482 21.7495 10.2001 21.703 10.0755 21.6162C9.95096 21.5294 9.85601 21.4065 9.80344 21.2641L7.90032 16.0994L2.73563 14.1963C2.59322 14.1438 2.47035 14.0488 2.38356 13.9243C2.29677 13.7997 2.25024 13.6516 2.25024 13.4998C2.25024 13.348 2.29677 13.1998 2.38356 13.0753C2.47035 12.9507 2.59322 12.8558 2.73563 12.8032L7.90032 10.9001L9.80344 5.73539C9.85601 5.59298 9.95096 5.4701 10.0755 5.38332C10.2001 5.29653 10.3482 5.25 10.5 5.25C10.6518 5.25 10.8 5.29653 10.9245 5.38332C11.0491 5.4701 11.144 5.59298 11.1966 5.73539L13.0997 10.9001L18.2644 12.8032C18.4068 12.8558 18.5297 12.9507 18.6165 13.0753C18.7032 13.1998 18.7498 13.348 18.7498 13.4998C18.7498 13.6516 18.7032 13.7997 18.6165 13.9243C18.5297 14.0488 18.4068 14.1438 18.2644 14.1963Z" fill="#F7F3EA"/>
<path d="M18.523 12.0994L13.6874 10.3125L11.9062 5.47312C11.8007 5.18656 11.6098 4.93924 11.3594 4.76455C11.1089 4.58985 10.8109 4.49619 10.5055 4.49619C10.2002 4.49619 9.90215 4.58985 9.65169 4.76455C9.40124 4.93924 9.21039 5.18656 9.10491 5.47312L7.31241 10.3125L2.47303 12.0938C2.18646 12.1992 1.93915 12.3901 1.76445 12.6405C1.58976 12.891 1.49609 13.189 1.49609 13.4944C1.49609 13.7997 1.58976 14.0978 1.76445 14.3482C1.93915 14.5987 2.18646 14.7895 2.47303 14.895L7.31241 16.6875L9.09366 21.5269C9.19914 21.8134 9.38999 22.0608 9.64044 22.2355C9.8909 22.4101 10.1889 22.5038 10.4943 22.5038C10.7996 22.5038 11.0977 22.4101 11.3481 22.2355C11.5986 22.0608 11.7894 21.8134 11.8949 21.5269L13.6874 16.6875L18.5268 14.9062C18.8133 14.8008 19.0607 14.6099 19.2354 14.3595C19.41 14.109 19.5037 13.811 19.5037 13.5056C19.5037 13.2003 19.41 12.9022 19.2354 12.6518C19.0607 12.4013 18.8133 12.2105 18.5268 12.105L18.523 12.0994ZM12.8437 15.3956C12.7419 15.4331 12.6494 15.4923 12.5727 15.569C12.496 15.6457 12.4368 15.7382 12.3993 15.84L10.4999 20.9859L8.60428 15.8438C8.56682 15.7409 8.50729 15.6474 8.42988 15.57C8.35246 15.4926 8.25903 15.4331 8.15616 15.3956L3.01397 13.5L8.15616 11.6044C8.25903 11.5669 8.35246 11.5074 8.42988 11.43C8.50729 11.3526 8.56682 11.2591 8.60428 11.1562L10.4999 6.01406L12.3955 11.1562C12.4331 11.2581 12.4922 11.3505 12.5689 11.4272C12.6456 11.5039 12.7381 11.5631 12.8399 11.6006L17.9858 13.5L12.8437 15.3956ZM13.4999 3.75C13.4999 3.55109 13.5789 3.36032 13.7196 3.21967C13.8602 3.07902 14.051 3 14.2499 3H15.7499V1.5C15.7499 1.30109 15.8289 1.11032 15.9696 0.96967C16.1102 0.829018 16.301 0.75 16.4999 0.75C16.6988 0.75 16.8896 0.829018 17.0302 0.96967C17.1709 1.11032 17.2499 1.30109 17.2499 1.5V3H18.7499C18.9488 3 19.1396 3.07902 19.2802 3.21967C19.4209 3.36032 19.4999 3.55109 19.4999 3.75C19.4999 3.94891 19.4209 4.13968 19.2802 4.28033C19.1396 4.42098 18.9488 4.5 18.7499 4.5H17.2499V6C17.2499 6.19891 17.1709 6.38968 17.0302 6.53033C16.8896 6.67098 16.6988 6.75 16.4999 6.75C16.301 6.75 16.1102 6.67098 15.9696 6.53033C15.8289 6.38968 15.7499 6.19891 15.7499 6V4.5H14.2499C14.051 4.5 13.8602 4.42098 13.7196 4.28033C13.5789 4.13968 13.4999 3.94891 13.4999 3.75ZM23.2499 8.25C23.2499 8.44891 23.1709 8.63968 23.0302 8.78033C22.8896 8.92098 22.6988 9 22.4999 9H21.7499V9.75C21.7499 9.94891 21.6709 10.1397 21.5302 10.2803C21.3896 10.421 21.1988 10.5 20.9999 10.5C20.801 10.5 20.6102 10.421 20.4696 10.2803C20.3289 10.1397 20.2499 9.94891 20.2499 9.75V9H19.4999C19.301 9 19.1102 8.92098 18.9696 8.78033C18.8289 8.63968 18.7499 8.44891 18.7499 8.25C18.7499 8.05109 18.8289 7.86032 18.9696 7.71967C19.1102 7.57902 19.301 7.5 19.4999 7.5H20.2499V6.75C20.2499 6.55109 20.3289 6.36032 20.4696 6.21967C20.6102 6.07902 20.801 6 20.9999 6C21.1988 6 21.3896 6.07902 21.5302 6.21967C21.6709 6.36032 21.7499 6.55109 21.7499 6.75V7.5H22.4999C22.6988 7.5 22.8896 7.57902 23.0302 7.71967C23.1709 7.86032 23.2499 8.05109 23.2499 8.25Z" fill="#F7F3EA"/>
</svg>
