<svg width="16" height="16" viewBox="0 0 16 16" fill="none" xmlns="http://www.w3.org/2000/svg">
<path opacity="0.2" d="M14.3163 6.79935L11.2725 9.42435L12.2025 13.3487C12.2271 13.4496 12.2213 13.5555 12.1857 13.653C12.1501 13.7505 12.0864 13.8353 12.0027 13.8966C11.9189 13.958 11.8189 13.9931 11.7152 13.9976C11.6115 14.0021 11.5088 13.9757 11.42 13.9218L8.00003 11.8181L4.58003 13.9212C4.4913 13.9751 4.38859 14.0014 4.28488 13.997C4.18117 13.9925 4.08112 13.9573 3.99738 13.896C3.91363 13.8347 3.84995 13.7499 3.81438 13.6523C3.77881 13.5548 3.77295 13.449 3.79753 13.3481L4.72753 9.42372L1.68378 6.79872C1.60618 6.73058 1.55023 6.64121 1.52284 6.54163C1.49545 6.44205 1.49782 6.33663 1.52966 6.23839C1.5615 6.14014 1.62142 6.05337 1.70201 5.98879C1.7826 5.92421 1.88034 5.88464 1.98316 5.87497L5.97753 5.54997L7.51628 1.82497C7.55551 1.72887 7.62247 1.64663 7.70863 1.58874C7.79479 1.53086 7.89623 1.49994 8.00003 1.49994C8.10383 1.49994 8.20528 1.53086 8.29144 1.58874C8.37759 1.64663 8.44456 1.72887 8.48378 1.82497L10.0225 5.54997L14.0169 5.87497C14.1199 5.88453 14.2178 5.92406 14.2985 5.98868C14.3792 6.0533 14.4392 6.14018 14.4711 6.23855C14.5029 6.33692 14.5053 6.44248 14.4777 6.54215C14.4502 6.64183 14.3941 6.73125 14.3163 6.79935Z" fill="#FF9025"/>
<path d="M14.9483 6.07872C14.8858 5.88655 14.7678 5.71718 14.6092 5.59195C14.4506 5.46671 14.2585 5.39122 14.0571 5.37497L10.3696 5.07747L8.9458 1.63435C8.86881 1.44674 8.73776 1.28625 8.56932 1.17331C8.40088 1.06037 8.20267 1.00006 7.99987 1.00006C7.79707 1.00006 7.59885 1.06037 7.43041 1.17331C7.26197 1.28625 7.13093 1.44674 7.05393 1.63435L5.63143 5.07685L1.94205 5.37497C1.74029 5.39204 1.54805 5.46827 1.38941 5.5941C1.23078 5.71994 1.11281 5.8898 1.05028 6.08238C0.987751 6.27497 0.983448 6.48173 1.03791 6.67675C1.09237 6.87178 1.20317 7.04639 1.35643 7.17873L4.16893 9.6056L3.31205 13.2344C3.26413 13.4315 3.27587 13.6384 3.34577 13.8289C3.41567 14.0193 3.54058 14.1847 3.70465 14.3041C3.86873 14.4234 4.06456 14.4913 4.26729 14.4992C4.47002 14.507 4.67051 14.4544 4.8433 14.3481L7.99955 12.4056L11.1577 14.3481C11.3305 14.4532 11.5306 14.5047 11.7327 14.4963C11.9348 14.4879 12.1299 14.4198 12.2934 14.3008C12.4569 14.1817 12.5816 14.0169 12.6516 13.8271C12.7217 13.6374 12.734 13.4311 12.6871 13.2344L11.8271 9.60497L14.6396 7.1781C14.7941 7.04599 14.9059 6.871 14.9608 6.67529C15.0158 6.47958 15.0114 6.27196 14.9483 6.07872ZM13.9896 6.4206L10.9458 9.0456C10.8764 9.10543 10.8248 9.18318 10.7965 9.27037C10.7683 9.35756 10.7646 9.45082 10.7858 9.53998L11.7158 13.465C11.7182 13.4704 11.7184 13.4765 11.7165 13.4821C11.7145 13.4877 11.7105 13.4923 11.7052 13.495C11.6939 13.5037 11.6908 13.5019 11.6814 13.495L8.26143 11.3919C8.18266 11.3434 8.09201 11.3178 7.99955 11.3178C7.90709 11.3178 7.81644 11.3434 7.73768 11.3919L4.31768 13.4962C4.3083 13.5019 4.3058 13.5037 4.29393 13.4962C4.28865 13.4935 4.28461 13.4889 4.28263 13.4833C4.28066 13.4778 4.2809 13.4716 4.2833 13.4662L5.2133 9.54123C5.2345 9.45207 5.23078 9.35881 5.20257 9.27162C5.17435 9.18443 5.12272 9.10668 5.0533 9.04685L2.00955 6.42185C2.00205 6.4156 1.99518 6.40998 2.00143 6.3906C2.00768 6.37122 2.01268 6.37372 2.02205 6.37247L6.01705 6.04997C6.10868 6.04212 6.19637 6.00914 6.27047 5.95466C6.34457 5.90019 6.40221 5.82634 6.43705 5.74122L7.9758 2.0156C7.9808 2.00497 7.98268 1.99997 7.99768 1.99997C8.01268 1.99997 8.01455 2.00497 8.01955 2.0156L9.56205 5.74122C9.59722 5.82637 9.65523 5.90014 9.72967 5.95441C9.80412 6.00867 9.89211 6.04131 9.98393 6.04872L13.9789 6.37122C13.9883 6.37122 13.9939 6.37122 13.9996 6.38935C14.0052 6.40747 13.9996 6.41435 13.9896 6.4206Z" fill="#FF9025"/>
</svg>
