<svg width="40" height="40" viewBox="0 0 40 40" fill="none" xmlns="http://www.w3.org/2000/svg">
<rect width="40" height="40" rx="20" fill="#19A333"/>
<path d="M22.3044 21.6153L24.4606 22.6916C24.3584 23.2023 24.0822 23.6617 23.679 23.9915C23.2759 24.3213 22.7708 24.501 22.25 24.5C20.4604 24.498 18.7447 23.7862 17.4792 22.5208C16.2138 21.2553 15.502 19.5396 15.5 17.75C15.4999 17.2298 15.68 16.7256 16.0097 16.3233C16.3394 15.9209 16.7984 15.6452 17.3084 15.5431L18.3847 17.6994L17.4688 19.0625C17.4003 19.1652 17.3582 19.2831 17.3463 19.406C17.3344 19.5288 17.3529 19.6526 17.4003 19.7666C17.9369 21.0419 18.9515 22.0565 20.2269 22.5931C20.3411 22.6426 20.466 22.6629 20.59 22.6521C20.7141 22.6413 20.8335 22.5997 20.9375 22.5312L22.3044 21.6153ZM29.75 20C29.7504 21.6833 29.3149 23.338 28.486 24.8031C27.6572 26.2682 26.4631 27.4938 25.02 28.3605C23.577 29.2272 21.9341 29.7055 20.2514 29.7489C18.5686 29.7923 16.9033 29.3993 15.4175 28.6081L12.2253 29.6722C11.961 29.7603 11.6774 29.7731 11.4062 29.7091C11.1351 29.6451 10.8871 29.5069 10.6901 29.3099C10.4931 29.1129 10.3549 28.8649 10.2909 28.5938C10.2269 28.3226 10.2397 28.039 10.3278 27.7747L11.3919 24.5825C10.6964 23.2749 10.3079 21.826 10.256 20.3459C10.2041 18.8658 10.49 17.3933 11.0921 16.0401C11.6942 14.687 12.5967 13.4888 13.731 12.5366C14.8654 11.5843 16.2017 10.9029 17.6387 10.5443C19.0756 10.1856 20.5754 10.159 22.0242 10.4664C23.473 10.7739 24.8327 11.4074 26.0001 12.3188C27.1675 13.2303 28.1119 14.3957 28.7616 15.7266C29.4114 17.0575 29.7494 18.5189 29.75 20ZM26 22.25C26.0001 22.1107 25.9614 21.9741 25.8882 21.8555C25.815 21.7369 25.7102 21.6411 25.5856 21.5787L22.5856 20.0787C22.4675 20.0199 22.336 19.9932 22.2043 20.0015C22.0726 20.0097 21.9455 20.0525 21.8356 20.1256L20.4584 21.0444C19.8262 20.6968 19.306 20.1766 18.9584 19.5444L19.8772 18.1672C19.9503 18.0573 19.9931 17.9302 20.0013 17.7985C20.0096 17.6668 19.9829 17.5353 19.9241 17.4172L18.4241 14.4172C18.3619 14.2916 18.2658 14.186 18.1467 14.1123C18.0275 14.0385 17.8901 13.9996 17.75 14C16.7554 14 15.8016 14.3951 15.0983 15.0983C14.3951 15.8016 14 16.7554 14 17.75C14.0025 19.9373 14.8725 22.0343 16.4191 23.5809C17.9657 25.1275 20.0627 25.9975 22.25 26C22.7425 26 23.2301 25.903 23.6851 25.7145C24.14 25.5261 24.5534 25.2499 24.9017 24.9016C25.2499 24.5534 25.5261 24.14 25.7145 23.6851C25.903 23.2301 26 22.7425 26 22.25Z" fill="white"/>
</svg>
