<svg width="221" height="11" viewBox="0 0 221 11" fill="none" xmlns="http://www.w3.org/2000/svg">
<path d="M220.11 6.35056C218.389 5.84192 216.982 5.08952 206.791 4.12944C203.304 3.81 199.826 3.46416 196.338 3.15792C170.293 1.21664 168.027 1.2888 148.812 0.468641C138.519 0.121921 128.2 0.0964009 117.894 -0.000399102C110.626 -0.0100791 103.357 0.136881 96.0913 0.219601C56.9643 1.192 70.5797 0.675441 43.3178 2.0368C31.5711 2.93176 19.8525 3.96048 8.11522 4.90032C6.36499 5.1124 4.58826 5.26728 2.86141 5.53568C0.950647 5.83664 0.878955 5.82432 0.606211 5.96512C-0.639057 6.47376 0.141768 7.73744 1.96525 7.50512C7.26271 6.67176 6.9962 6.75096 29.7165 4.89504C30.3804 5.28928 30.8527 5.19248 32.5873 5.16872C34.643 5.14056 36.6987 5.12208 38.7529 5.07016C47.0926 4.73488 55.4105 4.2236 63.7455 3.84256C66.6148 3.72816 69.4809 3.568 72.3502 3.42896C75.9675 3.32688 79.5864 3.22744 83.2054 3.12976C101.951 2.93968 96.5246 2.85432 119.776 2.996C123.426 3.08312 120.021 2.98016 139.37 3.6032C154.427 4.38464 170.684 6.06192 185.412 7.66176C191.782 8.35784 203.596 9.70336 209.774 10.8984C210.368 10.9908 211.064 10.8746 211.412 10.5834C211.906 10.256 211.826 9.72976 211.29 9.42792C210.784 9.15336 210.022 9.1252 209.392 8.98088C206.604 8.46608 202.505 7.91696 199.469 7.5236L203.546 7.81224C207.134 8.08768 210.759 8.1572 214.353 8.40624C216.036 8.49072 218.316 8.56552 219.705 8.01992C220.057 7.8844 220.462 7.77792 220.673 7.55616C221.103 7.15224 220.849 6.58288 220.113 6.35232L220.11 6.35056ZM144.227 2.09136C150.093 2.21456 168.226 3.04616 174.874 3.40608C182.035 3.89096 189.195 4.37672 196.344 4.9188C200.123 5.33856 207.897 5.90528 212.197 6.51512C210.347 6.41392 208.493 6.34176 206.641 6.24584C185.841 4.84664 165.06 3.34008 144.227 2.09136Z" fill="#FF9025"/>
</svg>
